<?xml version="1.0" standalone="no"?>
<!DOCTYPE svg PUBLIC "-//W3C//DTD SVG 20010904//EN"
 "http://www.w3.org/TR/2001/REC-SVG-20010904/DTD/svg10.dtd">
<svg version="1.0" xmlns="http://www.w3.org/2000/svg"
 width="601.000000pt" height="601.000000pt" viewBox="0 0 601.000000 601.000000"
 preserveAspectRatio="xMidYMid meet">
<metadata>
Created by potrace 1.11, written by Peter Selinger 2001-2013
</metadata>
<g transform="translate(0.000000,601.000000) scale(0.100000,-0.100000)"
fill="#000000" stroke="none">
<path d="M2720 4794 c-201 -37 -320 -94 -435 -209 -67 -67 -89 -97 -132 -185
-103 -208 -136 -357 -126 -565 l5 -110 -76 -234 c-87 -266 -88 -259 7 -282 29
-6 58 -16 65 -22 8 -6 12 -42 12 -111 0 -56 5 -117 10 -136 6 -19 21 -89 35
-155 35 -166 38 -171 93 -186 34 -8 236 -13 704 -16 l656 -4 285 -280 c157
-153 290 -279 294 -279 5 0 19 7 31 16 22 15 22 18 22 277 l0 263 44 12 c50
13 109 60 132 103 12 24 14 171 14 1003 0 666 -3 984 -11 1003 -15 40 -48 73
-94 94 -38 18 -80 19 -750 18 -553 -1 -727 -4 -785 -15z"/>
<path d="M4105 1746 l-40 -13 -3 -76 -3 -77 -49 0 -50 0 0 -45 0 -45 49 0 50
0 3 -222 c3 -202 5 -226 23 -256 27 -46 81 -72 147 -72 89 0 98 6 98 56 l0 44
-53 0 c-29 0 -61 6 -71 13 -27 20 -35 83 -36 270 l0 167 85 0 85 0 0 45 0 45
-85 0 -85 0 0 90 c0 99 2 96 -65 76z"/>
<path d="M1266 1570 c-32 -10 -63 -23 -67 -27 -7 -7 4 -64 16 -80 0 -2 26 7
56 18 41 16 70 20 122 17 83 -5 116 -31 127 -101 l6 -44 -81 -6 c-198 -14
-323 -121 -300 -258 25 -149 227 -201 355 -92 l40 35 0 -41 0 -41 53 0 53 0
-4 223 c-4 263 -13 307 -71 360 -22 20 -57 40 -78 46 -58 16 -161 12 -227 -9z
m264 -361 c0 -110 -49 -169 -145 -177 -29 -2 -62 1 -73 7 -52 28 -66 118 -25
163 36 40 109 65 201 67 l42 1 0 -61z"/>
<path d="M1975 1566 c-62 -29 -117 -86 -147 -151 -19 -42 -23 -67 -23 -155 0
-91 3 -111 24 -150 86 -165 275 -211 398 -97 l43 40 0 -41 c0 -23 -5 -65 -11
-94 -28 -131 -166 -181 -329 -119 l-49 19 -15 -45 -15 -44 47 -21 c66 -30 208
-36 286 -14 65 19 134 75 160 130 30 63 35 131 38 444 l3 312 -52 0 -53 0 0
-46 0 -46 -27 33 c-60 70 -182 91 -278 45z m215 -94 c64 -48 89 -131 75 -257
-15 -146 -143 -217 -262 -144 -101 63 -113 287 -19 378 18 17 46 36 62 41 40
13 114 3 144 -18z"/>
<path d="M2770 1581 c-128 -39 -210 -169 -210 -332 0 -127 54 -225 154 -277
46 -24 61 -27 161 -27 62 0 129 6 154 13 l43 13 -6 42 c-4 23 -8 42 -9 43 -1
1 -27 -4 -57 -12 -177 -46 -298 13 -325 159 l-7 37 221 0 221 0 0 58 c0 176
-103 293 -255 291 -33 0 -71 -4 -85 -8z m163 -103 c33 -24 52 -59 62 -115 l7
-43 -161 0 -161 0 0 25 c0 31 31 93 58 118 52 47 139 54 195 15z"/>
<path d="M3506 1576 c-21 -8 -56 -32 -77 -52 l-39 -38 0 31 c0 55 -8 63 -61
63 l-49 0 0 -315 0 -315 60 0 60 0 0 203 c0 190 1 205 23 247 41 82 132 114
208 74 59 -30 69 -72 69 -311 l0 -213 61 0 60 0 -3 238 c-3 232 -4 239 -29
287 -38 74 -92 109 -177 112 -41 2 -82 -3 -106 -11z"/>
<path d="M4440 1535 l0 -45 172 -2 172 -3 -31 -35 c-16 -19 -98 -124 -182
-232 -129 -169 -151 -203 -151 -233 l0 -35 255 0 255 0 0 45 0 45 -181 0
c-176 0 -181 1 -168 19 8 10 89 117 182 237 139 181 167 223 167 251 l0 33
-245 0 -245 0 0 -45z"/>
</g>
</svg>
